<?xml version="1.0" encoding="utf-8"?>
<svg version="1.1" xmlns:xlink="http://www.w3.org/1999/xlink" width="53px" height="49px" xmlns="http://www.w3.org/2000/svg">
  <g transform="matrix(1 0 0 1 -337 -728 )">
    <path d="M 363.5 728  C 378.34 728  390 738.78  390 752.5  C 390 766.22  378.34 777  363.5 777  C 348.66 777  337 766.22  337 752.5  C 337 738.78  348.66 728  363.5 728  Z " fill-rule="nonzero" fill="#ffffff" stroke="none" />
    <path d="M 363.5 728.5  C 378.06 728.5  389.5 739.06  389.5 752.5  C 389.5 765.94  378.06 776.5  363.5 776.5  C 348.94 776.5  337.5 765.94  337.5 752.5  C 337.5 739.06  348.94 728.5  363.5 728.5  Z " stroke-width="1" stroke="#797979" fill="none" />
  </g>
</svg>