<?xml version="1.0" encoding="utf-8"?>
<svg version="1.1" xmlns:xlink="http://www.w3.org/1999/xlink" width="30px" height="21px" xmlns="http://www.w3.org/2000/svg">
  <g transform="matrix(1 0 0 1 -33 -185 )">
    <path d="M 4 1.05000000000001  L 4 12.6  L 29.0625 12.6  C 29.31640625 12.6  29.5361328125 12.70390625  29.7216796875 12.91171875  C 29.9072265625 13.11953125  30 13.365625  30 13.65  L 30 21  L 26.25 21  L 26.25 16.8  L 3.75 16.8  L 3.75 21  L 0 21  L 0 1.05000000000001  C 0 0.765625  0.0927734375 0.51953125  0.2783203125 0.311718750000011  C 0.4638671875 0.103906249999994  0.68359375 0  0.9375 0  L 2.8125 0  C 3.06640625 0  3.2861328125 0.103906249999994  3.4716796875 0.311718750000011  C 3.6572265625 0.51953125  3.75 0.765625  4 1.05000000000001  Z M 11.0888671875 10.31953125  C 11.8212890625 9.49921875000001  12.1875 8.50937500000001  12.1875 7.35  C 12.1875 6.19062500000001  11.8212890625 5.20078125000001  11.0888671875 4.38046875000001  C 10.3564453125 3.56015625000001  9.47265625 3.15000000000001  8.4375 3.15000000000001  C 7.40234375 3.15000000000001  6.5185546875 3.56015625000001  5.7861328125 4.38046875000001  C 5.0537109375 5.20078125000001  4.6875 6.19062500000001  4.6875 7.35  C 4.6875 8.50937500000001  5.0537109375 9.49921875000001  5.7861328125 10.31953125  C 6.5185546875 11.13984375  7.40234375 11.55  8.4375 11.55  C 9.47265625 11.55  10.3564453125 11.13984375  11.0888671875 10.31953125  Z M 13.125 11.55  L 30 11.55  L 30 10.5  C 30 8.76093750000001  29.45068359375 7.27617187499999  28.35205078125 6.04570312499999  C 27.25341796875 4.81523437499999  25.927734375 4.19999999999999  24.375 4.19999999999999  L 14.0625 4.19999999999999  C 13.80859375 4.19999999999999  13.5888671875 4.30390625000001  13.4033203125 4.51171875  C 13.2177734375 4.71953124999999  13.125 4.96562499999999  13.125 5.25  L 13.125 11.55  Z " fill-rule="nonzero" fill="#ffffff" stroke="none" transform="matrix(1 0 0 1 33 185 )" />
  </g>
</svg>