<?xml version="1.0" encoding="utf-8"?>
<svg version="1.1" xmlns:xlink="http://www.w3.org/1999/xlink" width="53px" height="49px" xmlns="http://www.w3.org/2000/svg">
  <g transform="matrix(1 0 0 1 -33 -728 )">
    <path d="M 59.5 728  C 74.34 728  86 738.78  86 752.5  C 86 766.22  74.34 777  59.5 777  C 44.66 777  33 766.22  33 752.5  C 33 738.78  44.66 728  59.5 728  Z " fill-rule="nonzero" fill="#ff6600" stroke="none" />
    <path d="M 59.5 728.5  C 74.06 728.5  85.5 739.06  85.5 752.5  C 85.5 765.94  74.06 776.5  59.5 776.5  C 44.94 776.5  33.5 765.94  33.5 752.5  C 33.5 739.06  44.94 728.5  59.5 728.5  Z " stroke-width="1" stroke="#797979" fill="none" />
  </g>
</svg>