<?xml version="1.0" encoding="utf-8"?>
<svg version="1.1" xmlns:xlink="http://www.w3.org/1999/xlink" width="170px" height="170px" xmlns="http://www.w3.org/2000/svg">
  <g transform="matrix(1 0 0 1 -1038 -410 )">
    <path d="M 1123 410  C 1170.6 410  1208 447.4  1208 495  C 1208 542.6  1170.6 580  1123 580  C 1075.4 580  1038 542.6  1038 495  C 1038 447.4  1075.4 410  1123 410  Z " fill-rule="nonzero" fill="#ffffff" stroke="none" />
    <path d="M 1123 410.5  C 1170.32 410.5  1207.5 447.68  1207.5 495  C 1207.5 542.32  1170.32 579.5  1123 579.5  C 1075.68 579.5  1038.5 542.32  1038.5 495  C 1038.5 447.68  1075.68 410.5  1123 410.5  Z " stroke-width="1" stroke="#797979" fill="none" />
  </g>
</svg>